<svg id="visual" viewBox="0 0 900 675" width="900" height="675" xmlns="http://www.w3.org/2000/svg" xmlns:xlink="http://www.w3.org/1999/xlink" version="1.1"><rect x="0" y="0" width="900" height="675" fill="#f3f4f6"></rect><defs><linearGradient id="grad1_0" x1="25%" y1="0%" x2="100%" y2="100%"><stop offset="23.333333333333336%" stop-color="#f3f4f6" stop-opacity="1"></stop><stop offset="76.66666666666666%" stop-color="#f3f4f6" stop-opacity="1"></stop></linearGradient></defs><defs><linearGradient id="grad2_0" x1="0%" y1="0%" x2="75%" y2="100%"><stop offset="23.333333333333336%" stop-color="#f3f4f6" stop-opacity="1"></stop><stop offset="76.66666666666666%" stop-color="#f3f4f6" stop-opacity="1"></stop></linearGradient></defs><g transform="translate(900, 0)"><path d="M0 421.9C-36.9 420.5 -73.8 419.2 -109.2 407.5C-144.6 395.8 -178.5 373.7 -198.5 343.8C-218.5 314 -224.8 276.4 -256.7 256.7C-288.6 236.9 -346.2 235 -362.9 209.5C-379.6 184 -355.3 134.9 -358.4 96C-361.4 57.2 -391.6 28.6 -421.9 0L0 0Z" fill="#6600FF"></path></g><g transform="translate(0, 675)"><path d="M0 -421.9C30 -397.1 60 -372.4 98.9 -369C137.7 -365.6 185.3 -383.6 210.9 -365.4C236.6 -347.1 240.2 -292.5 259.5 -259.5C278.9 -226.5 314 -215.1 330.8 -191C347.7 -166.9 346.2 -130 358.4 -96C370.5 -62.1 396.2 -31 421.9 0L0 0Z" fill="#6600FF"></path></g></svg>