<svg id="visual" viewBox="0 0 900 675" width="900" height="675" xmlns="http://www.w3.org/2000/svg" xmlns:xlink="http://www.w3.org/1999/xlink" version="1.1"><rect width="900" height="675" fill="#f3f4f6"></rect><g><g transform="translate(638 224)"><path d="M133 -41.6C154.5 23 141.7 100.3 93.4 137.4C45.2 174.6 -38.7 171.6 -94.8 130.8C-150.9 90 -179.2 11.3 -158.8 -51.8C-138.4 -114.9 -69.2 -162.3 -6.7 -160.1C55.7 -157.9 111.5 -106.1 133 -41.6Z" stroke="#6600FF" fill="none" stroke-width="20"></path></g><g transform="translate(232 439)"><path d="M132.6 -36.1C150.4 11.8 128.7 79.6 84.3 110.6C39.8 141.6 -27.4 135.9 -72.4 102.5C-117.5 69.1 -140.4 8 -124.6 -37.1C-108.9 -82.1 -54.4 -111.2 1.5 -111.7C57.4 -112.2 114.7 -84.1 132.6 -36.1Z" stroke="#6600FF" fill="none" stroke-width="20"></path></g></g></svg>