<svg id="visual" viewBox="0 0 900 675" width="900" height="675" xmlns="http://www.w3.org/2000/svg" xmlns:xlink="http://www.w3.org/1999/xlink" version="1.1"><path d="M0 163L21.5 147.3C43 131.7 86 100.3 128.8 83.5C171.7 66.7 214.3 64.3 257.2 78.8C300 93.3 343 124.7 385.8 128C428.7 131.3 471.3 106.7 514.2 94.3C557 82 600 82 642.8 101.2C685.7 120.3 728.3 158.7 771.2 159.8C814 161 857 125 878.5 107L900 89L900 0L878.5 0C857 0 814 0 771.2 0C728.3 0 685.7 0 642.8 0C600 0 557 0 514.2 0C471.3 0 428.7 0 385.8 0C343 0 300 0 257.2 0C214.3 0 171.7 0 128.8 0C86 0 43 0 21.5 0L0 0Z" fill="#000000"></path><path d="M0 298L21.5 283.3C43 268.7 86 239.3 128.8 219.2C171.7 199 214.3 188 257.2 184.7C300 181.3 343 185.7 385.8 184.5C428.7 183.3 471.3 176.7 514.2 180C557 183.3 600 196.7 642.8 211.3C685.7 226 728.3 242 771.2 236.5C814 231 857 204 878.5 190.5L900 177L900 87L878.5 105C857 123 814 159 771.2 157.8C728.3 156.7 685.7 118.3 642.8 99.2C600 80 557 80 514.2 92.3C471.3 104.7 428.7 129.3 385.8 126C343 122.7 300 91.3 257.2 76.8C214.3 62.3 171.7 64.7 128.8 81.5C86 98.3 43 129.7 21.5 145.3L0 161Z" fill="#1a1aa6"></path><path d="M0 406L21.5 388C43 370 86 334 128.8 341.8C171.7 349.7 214.3 401.3 257.2 396.8C300 392.3 343 331.7 385.8 310.3C428.7 289 471.3 307 514.2 346.3C557 385.7 600 446.3 642.8 447.5C685.7 448.7 728.3 390.3 771.2 354.3C814 318.3 857 304.7 878.5 297.8L900 291L900 175L878.5 188.5C857 202 814 229 771.2 234.5C728.3 240 685.7 224 642.8 209.3C600 194.7 557 181.3 514.2 178C471.3 174.7 428.7 181.3 385.8 182.5C343 183.7 300 179.3 257.2 182.7C214.3 186 171.7 197 128.8 217.2C86 237.3 43 266.7 21.5 281.3L0 296Z" fill="#4338ca"></path><path d="M0 521L21.5 503C43 485 86 449 128.8 449C171.7 449 214.3 485 257.2 474.8C300 464.7 343 408.3 385.8 391.5C428.7 374.7 471.3 397.3 514.2 434.5C557 471.7 600 523.3 642.8 521C685.7 518.7 728.3 462.3 771.2 435.3C814 408.3 857 410.7 878.5 411.8L900 413L900 289L878.5 295.8C857 302.7 814 316.3 771.2 352.3C728.3 388.3 685.7 446.7 642.8 445.5C600 444.3 557 383.7 514.2 344.3C471.3 305 428.7 287 385.8 308.3C343 329.7 300 390.3 257.2 394.8C214.3 399.3 171.7 347.7 128.8 339.8C86 332 43 368 21.5 386L0 404Z" fill="#1a1aa6"></path><path d="M0 676L21.5 676C43 676 86 676 128.8 676C171.7 676 214.3 676 257.2 676C300 676 343 676 385.8 676C428.7 676 471.3 676 514.2 676C557 676 600 676 642.8 676C685.7 676 728.3 676 771.2 676C814 676 857 676 878.5 676L900 676L900 411L878.5 409.8C857 408.7 814 406.3 771.2 433.3C728.3 460.3 685.7 516.7 642.8 519C600 521.3 557 469.7 514.2 432.5C471.3 395.3 428.7 372.7 385.8 389.5C343 406.3 300 462.7 257.2 472.8C214.3 483 171.7 447 128.8 447C86 447 43 483 21.5 501L0 519Z" fill="#000000"></path></svg>