<svg id="visual" viewBox="0 0 900 675" width="900" height="675" xmlns="http://www.w3.org/2000/svg" xmlns:xlink="http://www.w3.org/1999/xlink" version="1.1"><path d="M0 231L21.5 209.5C43 188 86 145 128.8 145C171.7 145 214.3 188 257.2 215C300 242 343 253 385.8 247.3C428.7 241.7 471.3 219.3 514.2 189C557 158.7 600 120.3 642.8 126C685.7 131.7 728.3 181.3 771.2 192.7C814 204 857 177 878.5 163.5L900 150L900 0L878.5 0C857 0 814 0 771.2 0C728.3 0 685.7 0 642.8 0C600 0 557 0 514.2 0C471.3 0 428.7 0 385.8 0C343 0 300 0 257.2 0C214.3 0 171.7 0 128.8 0C86 0 43 0 21.5 0L0 0Z" fill="#f3f4f6"></path><path d="M0 264L21.5 249.5C43 235 86 206 128.8 207.2C171.7 208.3 214.3 239.7 257.2 271.2C300 302.7 343 334.3 385.8 344.5C428.7 354.7 471.3 343.3 514.2 321.8C557 300.3 600 268.7 642.8 263C685.7 257.3 728.3 277.7 771.2 276.7C814 275.7 857 253.3 878.5 242.2L900 231L900 148L878.5 161.5C857 175 814 202 771.2 190.7C728.3 179.3 685.7 129.7 642.8 124C600 118.3 557 156.7 514.2 187C471.3 217.3 428.7 239.7 385.8 245.3C343 251 300 240 257.2 213C214.3 186 171.7 143 128.8 143C86 143 43 186 21.5 207.5L0 229Z" fill="#8c9bfe"></path><path d="M0 440L21.5 404C43 368 86 296 128.8 302.7C171.7 309.3 214.3 394.7 257.2 444.2C300 493.7 343 507.3 385.8 508.5C428.7 509.7 471.3 498.3 514.2 471.3C557 444.3 600 401.7 642.8 392.7C685.7 383.7 728.3 408.3 771.2 398.2C814 388 857 343 878.5 320.5L900 298L900 229L878.5 240.2C857 251.3 814 273.7 771.2 274.7C728.3 275.7 685.7 255.3 642.8 261C600 266.7 557 298.3 514.2 319.8C471.3 341.3 428.7 352.7 385.8 342.5C343 332.3 300 300.7 257.2 269.2C214.3 237.7 171.7 206.3 128.8 205.2C86 204 43 233 21.5 247.5L0 262Z" fill="#715df2"></path><path d="M0 555L21.5 515.5C43 476 86 397 128.8 400.3C171.7 403.7 214.3 489.3 257.2 537.8C300 586.3 343 597.7 385.8 597.7C428.7 597.7 471.3 586.3 514.2 554.8C557 523.3 600 471.7 642.8 459.3C685.7 447 728.3 474 771.2 474C814 474 857 447 878.5 433.5L900 420L900 296L878.5 318.5C857 341 814 386 771.2 396.2C728.3 406.3 685.7 381.7 642.8 390.7C600 399.7 557 442.3 514.2 469.3C471.3 496.3 428.7 507.7 385.8 506.5C343 505.3 300 491.7 257.2 442.2C214.3 392.7 171.7 307.3 128.8 300.7C86 294 43 366 21.5 402L0 438Z" fill="#8c9bfe"></path><path d="M0 676L21.5 676C43 676 86 676 128.8 676C171.7 676 214.3 676 257.2 676C300 676 343 676 385.8 676C428.7 676 471.3 676 514.2 676C557 676 600 676 642.8 676C685.7 676 728.3 676 771.2 676C814 676 857 676 878.5 676L900 676L900 418L878.5 431.5C857 445 814 472 771.2 472C728.3 472 685.7 445 642.8 457.3C600 469.7 557 521.3 514.2 552.8C471.3 584.3 428.7 595.7 385.8 595.7C343 595.7 300 584.3 257.2 535.8C214.3 487.3 171.7 401.7 128.8 398.3C86 395 43 474 21.5 513.5L0 553Z" fill="#f3f4f6"></path></svg>